HIERARCHY
ROOT mixamorig:Hips
{
	OFFSET 0.000000 97.439201 0.000000
	CHANNELS 6 Xposition Yposition Zposition Zrotation Yrotation Xrotation 
	JOINT mixamorig:Spine
	{
		OFFSET 0.000000 10.246803 -1.182900
		CHANNELS 3 Zrotation Yrotation Xrotation
		JOINT mixamorig:Spine1
		{
			OFFSET 0.000000 11.954597 -1.380086
			CHANNELS 3 Zrotation Yrotation Xrotation
			JOINT mixamorig:Spine2
			{
				OFFSET 0.000000 13.662361 -1.577237
				CHANNELS 3 Zrotation Yrotation Xrotation
				JOINT mixamorig:Neck
				{
					OFFSET 0.000000 15.370239 -1.774399
					CHANNELS 3 Zrotation Yrotation Xrotation
					JOINT mixamorig:Head
					{
						OFFSET 0.000000 6.121704 2.117600
						CHANNELS 3 Zrotation Yrotation Xrotation
						JOINT mixamorig:HeadTop_End
						{
							OFFSET 0.000000 23.480103 8.122100
							CHANNELS 3 Zrotation Yrotation Xrotation
							End Site
							{
								OFFSET 0.000000 0.000000 0.000000
							}
						}
					}
				}
				JOINT mixamorig:LeftShoulder
				{
					OFFSET 6.584100 13.564301 -1.766640
					CHANNELS 3 Zrotation Yrotation Xrotation
					JOINT mixamorig:LeftArm
					{
						OFFSET 13.322093 -3.531372 0.015528
						CHANNELS 3 Zrotation Yrotation Xrotation
						JOINT mixamorig:LeftForeArm
						{
							OFFSET 25.861839 0.000000 0.000001
							CHANNELS 3 Zrotation Yrotation Xrotation
							JOINT mixamorig:LeftHand
							{
								OFFSET 24.066311 0.000000 0.000001
								CHANNELS 3 Zrotation Yrotation Xrotation
								JOINT mixamorig:LeftHandThumb1
								{
									OFFSET 3.138794 -1.265854 2.647181
									CHANNELS 3 Zrotation Yrotation Xrotation
									JOINT mixamorig:LeftHandThumb2
									{
										OFFSET 2.662651 -1.537277 1.537284
										CHANNELS 3 Zrotation Yrotation Xrotation
										JOINT mixamorig:LeftHandThumb3
										{
											OFFSET 2.570145 -1.483871 1.483872
											CHANNELS 3 Zrotation Yrotation Xrotation
											JOINT mixamorig:LeftHandThumb4
											{
												OFFSET 2.200981 -1.270737 1.270736
												CHANNELS 3 Zrotation Yrotation Xrotation
												End Site
												{
													OFFSET 0.000000 0.000000 0.000000
												}
											}
										}
									}
								}
								JOINT mixamorig:LeftHandIndex1
								{
									OFFSET 10.405411 -0.300232 2.648106
									CHANNELS 3 Zrotation Yrotation Xrotation
									JOINT mixamorig:LeftHandIndex2
									{
										OFFSET 3.184044 0.000000 0.000000
										CHANNELS 3 Zrotation Yrotation Xrotation
										JOINT mixamorig:LeftHandIndex3
										{
											OFFSET 2.887520 0.000000 0.000000
											CHANNELS 3 Zrotation Yrotation Xrotation
											JOINT mixamorig:LeftHandIndex4
											{
												OFFSET 2.475807 0.000000 0.000000
												CHANNELS 3 Zrotation Yrotation Xrotation
												End Site
												{
													OFFSET 0.000000 0.000000 0.000000
												}
											}
										}
									}
								}
								JOINT mixamorig:LeftHandMiddle1
								{
									OFFSET 10.112617 0.000000 0.000000
									CHANNELS 3 Zrotation Yrotation Xrotation
									JOINT mixamorig:LeftHandMiddle2
									{
										OFFSET 3.478561 0.000000 0.000000
										CHANNELS 3 Zrotation Yrotation Xrotation
										JOINT mixamorig:LeftHandMiddle3
										{
											OFFSET 3.196815 0.000000 0.000000
											CHANNELS 3 Zrotation Yrotation Xrotation
											JOINT mixamorig:LeftHandMiddle4
											{
												OFFSET 2.838127 0.000000 0.000000
												CHANNELS 3 Zrotation Yrotation Xrotation
												End Site
												{
													OFFSET 0.000000 0.000000 0.000000
												}
											}
										}
									}
								}
								JOINT mixamorig:LeftHandRing1
								{
									OFFSET 9.766037 0.002869 -2.231968
									CHANNELS 3 Zrotation Yrotation Xrotation
									JOINT mixamorig:LeftHandRing2
									{
										OFFSET 2.912598 0.000000 0.000000
										CHANNELS 3 Zrotation Yrotation Xrotation
										JOINT mixamorig:LeftHandRing3
										{
											OFFSET 2.743797 0.000000 0.000000
											CHANNELS 3 Zrotation Yrotation Xrotation
											JOINT mixamorig:LeftHandRing4
											{
												OFFSET 2.426300 0.000000 0.000000
												CHANNELS 3 Zrotation Yrotation Xrotation
												End Site
												{
													OFFSET 0.000000 0.000000 0.000000
												}
											}
										}
									}
								}
								JOINT mixamorig:LeftHandPinky1
								{
									OFFSET 8.462975 -0.296494 -4.344542
									CHANNELS 3 Zrotation Yrotation Xrotation
									JOINT mixamorig:LeftHandPinky2
									{
										OFFSET 2.761932 0.000000 0.000000
										CHANNELS 3 Zrotation Yrotation Xrotation
										JOINT mixamorig:LeftHandPinky3
										{
											OFFSET 2.226311 0.000000 0.000000
											CHANNELS 3 Zrotation Yrotation Xrotation
											JOINT mixamorig:LeftHandPinky4
											{
												OFFSET 2.001915 0.000000 0.000000
												CHANNELS 3 Zrotation Yrotation Xrotation
												End Site
												{
													OFFSET 0.000000 0.000000 0.000000
												}
											}
										}
									}
								}
							}
						}
					}
				}
				JOINT mixamorig:RightShoulder
				{
					OFFSET -6.584100 13.564331 -1.782145
					CHANNELS 3 Zrotation Yrotation Xrotation
					JOINT mixamorig:RightArm
					{
						OFFSET -13.322087 -3.531387 -0.015528
						CHANNELS 3 Zrotation Yrotation Xrotation
						JOINT mixamorig:RightForeArm
						{
							OFFSET -25.995886 0.000000 -0.000000
							CHANNELS 3 Zrotation Yrotation Xrotation
							JOINT mixamorig:RightHand
							{
								OFFSET -23.930798 0.000000 -0.000000
								CHANNELS 3 Zrotation Yrotation Xrotation
								JOINT mixamorig:RightHandThumb1
								{
									OFFSET -3.103348 -1.214722 2.665987
									CHANNELS 3 Zrotation Yrotation Xrotation
									JOINT mixamorig:RightHandThumb2
									{
										OFFSET -2.644638 -1.526886 1.526883
										CHANNELS 3 Zrotation Yrotation Xrotation
										JOINT mixamorig:RightHandThumb3
										{
											OFFSET -2.548042 -1.471115 1.471114
											CHANNELS 3 Zrotation Yrotation Xrotation
											JOINT mixamorig:RightHandThumb4
											{
												OFFSET -2.086876 -1.204865 1.204859
												CHANNELS 3 Zrotation Yrotation Xrotation
												End Site
												{
													OFFSET 0.000000 0.000000 0.000000
												}
											}
										}
									}
								}
								JOINT mixamorig:RightHandIndex1
								{
									OFFSET -9.891205 -0.413467 2.629802
									CHANNELS 3 Zrotation Yrotation Xrotation
									JOINT mixamorig:RightHandIndex2
									{
										OFFSET -3.265656 0.000000 0.000000
										CHANNELS 3 Zrotation Yrotation Xrotation
										JOINT mixamorig:RightHandIndex3
										{
											OFFSET -3.106102 0.000000 0.000000
											CHANNELS 3 Zrotation Yrotation Xrotation
											JOINT mixamorig:RightHandIndex4
											{
												OFFSET -2.514259 0.000000 0.000000
												CHANNELS 3 Zrotation Yrotation Xrotation
												End Site
												{
													OFFSET 0.000000 0.000000 0.000000
												}
											}
										}
									}
								}
								JOINT mixamorig:RightHandMiddle1
								{
									OFFSET -10.108925 0.000000 0.000000
									CHANNELS 3 Zrotation Yrotation Xrotation
									JOINT mixamorig:RightHandMiddle2
									{
										OFFSET -3.489250 0.000000 0.000000
										CHANNELS 3 Zrotation Yrotation Xrotation
										JOINT mixamorig:RightHandMiddle3
										{
											OFFSET -3.236908 0.000000 0.000000
											CHANNELS 3 Zrotation Yrotation Xrotation
											JOINT mixamorig:RightHandMiddle4
											{
												OFFSET -2.756126 0.000000 0.000000
												CHANNELS 3 Zrotation Yrotation Xrotation
												End Site
												{
													OFFSET 0.000000 0.000000 0.000000
												}
											}
										}
									}
								}
								JOINT mixamorig:RightHandRing1
								{
									OFFSET -9.832733 -0.175018 -2.119855
									CHANNELS 3 Zrotation Yrotation Xrotation
									JOINT mixamorig:RightHandRing2
									{
										OFFSET -2.832802 0.000000 0.000000
										CHANNELS 3 Zrotation Yrotation Xrotation
										JOINT mixamorig:RightHandRing3
										{
											OFFSET -2.766335 0.000000 0.000000
											CHANNELS 3 Zrotation Yrotation Xrotation
											JOINT mixamorig:RightHandRing4
											{
												OFFSET -2.344864 0.000000 0.000000
												CHANNELS 3 Zrotation Yrotation Xrotation
												End Site
												{
													OFFSET 0.000000 0.000000 0.000000
												}
											}
										}
									}
								}
								JOINT mixamorig:RightHandPinky1
								{
									OFFSET -8.564178 -0.350037 -4.300325
									CHANNELS 3 Zrotation Yrotation Xrotation
									JOINT mixamorig:RightHandPinky2
									{
										OFFSET -2.646233 0.000000 0.000000
										CHANNELS 3 Zrotation Yrotation Xrotation
										JOINT mixamorig:RightHandPinky3
										{
											OFFSET -2.261864 0.000000 0.000000
											CHANNELS 3 Zrotation Yrotation Xrotation
											JOINT mixamorig:RightHandPinky4
											{
												OFFSET -1.954506 0.000000 0.000000
												CHANNELS 3 Zrotation Yrotation Xrotation
												End Site
												{
													OFFSET 0.000000 0.000000 0.000000
												}
											}
										}
									}
								}
							}
						}
					}
				}
			}
		}
	}
	JOINT mixamorig:LeftUpLeg
	{
		OFFSET 7.983700 -5.694298 -0.735200
		CHANNELS 3 Zrotation Yrotation Xrotation
		JOINT mixamorig:LeftLeg
		{
			OFFSET 1.208505 -42.761528 -3.138802
			CHANNELS 3 Zrotation Yrotation Xrotation
			JOINT mixamorig:LeftFoot
			{
				OFFSET -1.208506 -38.163300 -2.010041
				CHANNELS 3 Zrotation Yrotation Xrotation
				JOINT mixamorig:LeftToeBase
				{
					OFFSET 1.841840 -10.410353 14.836088
					CHANNELS 3 Zrotation Yrotation Xrotation
					JOINT mixamorig:LeftToe_End
					{
						OFFSET 0.820596 -0.120798 6.988551
						CHANNELS 3 Zrotation Yrotation Xrotation
						End Site
						{
							OFFSET 0.000000 0.000000 0.000000
						}
					}
				}
			}
		}
	}
	JOINT mixamorig:RightUpLeg
	{
		OFFSET -7.983700 -5.694298 -0.831100
		CHANNELS 3 Zrotation Yrotation Xrotation
		JOINT mixamorig:RightLeg
		{
			OFFSET -1.208402 -42.761509 -2.372174
			CHANNELS 3 Zrotation Yrotation Xrotation
			JOINT mixamorig:RightFoot
			{
				OFFSET 1.208405 -38.162746 -2.730814
				CHANNELS 3 Zrotation Yrotation Xrotation
				JOINT mixamorig:RightToeBase
				{
					OFFSET -1.842189 -10.413905 14.893202
					CHANNELS 3 Zrotation Yrotation Xrotation
					JOINT mixamorig:RightToe_End
					{
						OFFSET -0.820738 -0.122444 6.961618
						CHANNELS 3 Zrotation Yrotation Xrotation
						End Site
						{
							OFFSET 0.000000 0.000000 0.000000
						}
					}
				}
			}
		}
	}
}
MOTION
Frames: 4
Frame Time: 0.016667
-0.083516 104.341072 0.788099 178.769342 -0.173342 -8.781998 -12.079457 1.121485 11.090375 -2.327494 0.646243 -0.927776 -2.336339 0.779826 -0.962350 -2.930790 0.199076 -10.469358 3.184221 -2.292204 -0.723567 0.000000 0.000000 0.000001 9.414052 1.706380 1.250224 74.393650 -53.782871 -121.397177 -0.000051 -76.900690 0.000071 -12.596194 -6.721783 50.904105 5.903483 8.588072 -32.591769 3.921636 21.088899 13.166282 22.698457 0.309408 2.440140 -0.000000 0.000003 -0.000002 -13.613233 3.688837 -0.657817 -14.466925 1.466490 -0.186132 -14.466952 1.466489 -0.186144 0.000002 -0.000001 -0.000000 -19.165855 4.174122 -1.038832 -20.003857 2.007710 -0.354114 -21.996098 2.198057 -0.427230 0.000000 0.000001 0.000000 -27.532786 4.829294 -1.696732 -25.350968 2.512335 -0.565128 -27.344669 2.695042 -0.655714 0.000001 -0.000001 -0.000002 -30.649782 5.047607 -1.965135 -27.457396 2.705269 -0.661020 -27.457403 2.705266 -0.661032 -0.000001 0.000000 0.000003 -44.805961 -14.708257 18.322062 -19.583592 33.981825 -118.148170 -0.000017 45.361930 -0.000005 -61.829995 49.351707 48.830761 23.545568 7.507593 -76.534077 -3.840418 -2.405918 3.152679 -14.788944 0.791863 -9.389087 0.000001 0.000000 -0.000001 -9.437040 7.360038 3.090786 4.968182 -0.404213 -0.017534 -9.983033 0.809088 -0.070666 0.000000 -0.000003 0.000000 -12.368105 0.608123 0.429954 8.514091 -0.691015 -0.051435 -6.441814 0.523655 -0.029481 0.000000 -0.000002 0.000000 -11.983914 -1.256566 0.419086 5.031998 -0.409394 -0.017993 -9.919206 0.803943 -0.069759 0.000000 0.000004 0.000000 -10.407853 -8.421531 -14.608269 4.509206 -0.366963 -0.014444 -10.442078 0.845867 -0.077290 -0.000000 -0.000002 0.000001 -15.491331 14.948519 -94.830686 3.218560 -3.979528 131.264919 -14.341930 -4.450053 -0.434596 -0.000018 -0.000002 -0.850355 -0.000002 -0.000001 0.000004 0.981720 -2.353002 13.419305 -8.836664 -4.760532 50.467739 1.048051 5.446990 40.599268 -0.000003 0.000001 6.268404 -0.000001 -0.000001 -0.000001 
0.698762 104.221855 1.780614 177.590625 11.771872 -8.594725 -12.110696 -0.355700 11.379353 -2.325728 0.246943 -0.993626 -2.342994 0.385812 -1.016889 -2.305159 0.246326 -10.387114 3.499524 -1.398877 -0.370054 0.000001 0.000000 -0.000001 11.899115 2.738519 1.520662 70.430062 -52.739361 -119.602317 -0.000125 -77.912514 0.000111 -12.121723 -7.543666 54.736567 5.903487 8.588075 -32.591768 3.921640 21.088900 13.166282 22.698464 0.309401 2.440135 -0.000003 -0.000002 0.000000 -13.613234 3.688837 -0.657818 -14.466928 1.466494 -0.186130 -14.466943 1.466493 -0.186143 0.000000 -0.000002 -0.000001 -19.165853 4.174130 -1.038835 -20.003857 2.007711 -0.354119 -21.996107 2.198060 -0.427233 0.000002 0.000000 0.000000 -27.532788 4.829297 -1.696733 -25.350964 2.512337 -0.565132 -27.344669 2.695043 -0.655714 -0.000001 -0.000001 0.000000 -30.649780 5.047613 -1.965140 -27.457396 2.705269 -0.661019 -27.457400 2.705264 -0.661033 -0.000001 0.000001 -0.000002 -44.460858 -14.911375 17.967233 -14.736058 34.350070 -115.645969 0.000014 48.722499 0.000028 -56.454771 50.476076 52.857120 23.527865 7.580550 -77.188531 -3.722903 -2.493840 3.063276 -14.902338 0.831524 -9.506324 0.000003 -0.000002 -0.000002 -9.207443 7.584547 3.074707 4.695546 -0.382079 -0.015668 -9.900310 0.802446 -0.069493 0.000000 0.000001 0.000000 -12.166345 0.820692 0.426318 8.246419 -0.669441 -0.048260 -6.361594 0.517166 -0.028748 0.000000 0.000004 0.000000 -11.790002 -1.064210 0.414847 4.776761 -0.388675 -0.016211 -9.856466 0.798923 -0.068888 0.000000 -0.000001 0.000000 -10.255915 -8.273720 -14.598512 4.374708 -0.356045 -0.013598 -10.403149 0.842761 -0.076732 0.000000 0.000000 0.000003 -17.331730 16.666180 -94.701075 2.409993 -3.238641 131.929745 -14.204545 -2.368548 -2.233452 0.000028 -0.000007 -0.345773 -0.000003 0.000001 0.000001 1.445173 -3.515562 10.173774 -7.415999 -3.063117 52.068481 -3.699799 -0.863202 34.181151 0.000002 0.000001 14.254536 -0.000001 0.000002 -0.000001 
1.421265 104.004814 2.768286 176.316900 23.859095 -8.662805 -12.204645 -1.871754 11.718450 -2.327061 -0.158194 -1.048049 -2.352525 -0.013923 -1.060438 -1.647497 0.313273 -10.262959 3.759870 -0.225734 0.227185 0.000001 0.000001 0.000001 14.679841 3.841268 1.824989 66.587188 -51.419382 -118.381428 0.000064 -78.854459 -0.000049 -12.251975 -8.832095 58.511389 5.903485 8.588070 -32.591776 3.921638 21.088903 13.166285 22.698459 0.309407 2.440139 -0.000003 -0.000003 0.000001 -13.613230 3.688836 -0.657817 -14.466923 1.466497 -0.186134 -14.466947 1.466488 -0.186144 0.000000 0.000000 0.000005 -19.165853 4.174120 -1.038835 -20.003853 2.007708 -0.354115 -21.996103 2.198061 -0.427230 0.000000 0.000000 0.000004 -27.532786 4.829288 -1.696729 -25.350963 2.512339 -0.565131 -27.344671 2.695037 -0.655719 0.000002 -0.000002 -0.000003 -30.649782 5.047604 -1.965134 -27.457396 2.705270 -0.661017 -27.457405 2.705267 -0.661031 0.000001 -0.000001 0.000001 -43.936514 -15.297472 17.203422 -10.291306 34.004914 -112.397780 0.000041 51.418668 0.000044 -51.231097 51.148767 56.838416 23.517986 7.636510 -77.631907 -3.644895 -2.551758 3.004037 -14.790551 0.854993 -9.535992 0.000001 0.000001 0.000000 -9.055446 7.733327 3.064914 4.515036 -0.367432 -0.014486 -9.845530 0.798048 -0.068735 0.000000 0.000001 0.000000 -12.033017 0.961232 0.423916 8.069742 -0.655188 -0.046212 -6.308489 0.512856 -0.028267 0.000000 0.000002 0.000000 -11.661721 -0.937096 0.412046 4.608186 -0.374994 -0.015093 -9.814939 0.795584 -0.068309 -0.000000 -0.000001 0.000001 -10.155235 -8.176068 -14.591822 4.285659 -0.348792 -0.013046 -10.377354 0.840683 -0.076340 0.000000 0.000000 0.000000 -18.749418 18.722647 -95.416749 2.325754 -2.962166 131.987440 -14.258441 -0.440276 -0.877053 -0.000021 -0.000002 0.772353 -0.000002 0.000006 -0.000000 1.206612 -3.957867 10.789401 -7.520235 -3.393783 48.304627 -9.661584 -8.484359 29.866828 0.000003 -0.000000 22.977016 -0.000000 0.000003 -0.000001 
2.033719 103.772423 3.748243 174.826305 35.755995 -9.099546 -12.271209 -3.377538 11.932944 -2.312967 -0.557213 -1.127113 -2.347238 -0.408474 -1.129384 -1.246311 0.435690 -10.079453 4.318096 1.028695 0.760051 0.000000 -0.000003 -0.000001 16.348364 4.665920 2.016221 63.803936 -50.444442 -117.323835 0.000041 -79.676998 -0.000014 -13.106864 -10.158161 61.657820 5.903480 8.588071 -32.591769 3.921640 21.088903 13.166283 22.698455 0.309402 2.440134 -0.000002 0.000001 -0.000002 -13.613236 3.688832 -0.657815 -14.466923 1.466492 -0.186131 -14.466952 1.466490 -0.186146 -0.000002 -0.000003 0.000000 -19.165855 4.174127 -1.038836 -20.003860 2.007708 -0.354116 -21.996102 2.198057 -0.427230 0.000001 -0.000001 -0.000001 -27.532791 4.829294 -1.696726 -25.350964 2.512336 -0.565131 -27.344669 2.695043 -0.655715 -0.000001 -0.000001 0.000002 -30.649782 5.047607 -1.965136 -27.457395 2.705270 -0.661018 -27.457401 2.705271 -0.661029 -0.000001 0.000002 0.000002 -43.450152 -15.403741 16.796659 -6.616566 33.252051 -110.478031 -0.000007 53.890356 0.000013 -46.319851 51.620159 60.313746 23.535975 7.616089 -77.685808 -3.634687 -2.556071 2.998021 -14.705075 0.854921 -9.518244 -0.000002 0.000003 -0.000000 -9.041099 7.752847 3.071297 4.494526 -0.365744 -0.014355 -9.839296 0.797548 -0.068650 0.000000 -0.000002 0.000000 -12.019256 0.977079 0.423675 8.050068 -0.653605 -0.045986 -6.302444 0.512376 -0.028216 0.000000 -0.000002 0.000000 -11.648375 -0.922720 0.411755 4.589170 -0.373435 -0.014967 -9.810229 0.795212 -0.068239 0.000000 0.000001 0.000001 -10.145974 -8.164338 -14.587380 4.275524 -0.347962 -0.012983 -10.374416 0.840450 -0.076304 0.000000 -0.000001 -0.000001 -19.207798 20.933537 -95.316019 1.716780 -1.793301 131.094464 -14.005279 -0.313564 1.051296 -0.000011 -0.000007 0.688593 0.000000 0.000002 0.000001 0.945281 -4.370245 12.033108 -8.257131 -3.956964 44.991645 -12.580941 -15.641725 27.018054 0.000010 -0.000002 29.575023 0.000000 0.000003 0.000000 
